<svg width="426" height="126" viewBox="0 0 426 126" fill="none" xmlns="http://www.w3.org/2000/svg">
<path fill-rule="evenodd" clip-rule="evenodd" d="M62.5259 49.5855C62.5259 46.8371 61.6097 44.7757 60.0065 43.4016C58.4033 41.7983 55.6549 41.1112 52.4484 41.1112H29.0871V58.0597H52.4484C55.8839 58.0597 58.4033 57.3726 60.0065 55.7694C61.6097 54.3952 62.5259 52.3338 62.5259 49.5855ZM109.248 95.1629C97.5678 75.9242 97.5678 49.8145 109.248 30.5758C134.213 -10.1919 201.09 -10.1919 226.055 30.5758C237.736 49.8145 237.736 75.9242 226.055 95.1629C201.09 135.931 133.984 135.931 109.248 95.1629ZM268.197 99.2855V41.1112H251.706C243.69 41.1112 237.277 34.6984 237.277 26.6822C237.277 18.6661 243.69 12.2532 251.706 12.2532H313.774C321.79 12.2532 328.203 18.6661 328.203 26.6822C328.203 34.6984 321.79 41.1112 313.774 41.1112H297.284V99.2855C297.284 107.302 290.871 113.714 282.855 113.714C274.61 113.714 268.197 107.073 268.197 99.2855ZM365.994 99.2855V41.1112H349.503C341.487 41.1112 335.074 34.6984 335.074 26.6822C335.074 18.6661 341.487 12.2532 349.503 12.2532H411.571C419.587 12.2532 426 18.6661 426 26.6822C426 34.6984 419.587 41.1112 411.571 41.1112H395.081V99.2855C395.081 107.302 388.668 113.714 380.652 113.714C372.406 113.714 365.994 107.073 365.994 99.2855ZM67.3355 109.821L42.371 86.6887H28.8581V99.0564C28.8581 107.072 22.4453 113.486 14.4291 113.486C6.41301 113.486 0 107.072 0 99.0564V26.4533C0 18.4371 6.41301 12.0241 14.4291 12.0241H46.4937C55.6549 12.0241 63.671 13.6273 70.3129 16.6048C77.1839 19.5822 82.2226 23.9338 85.8871 29.6596C89.5516 35.3854 91.3839 42.0274 91.3839 49.5855C91.3839 56.9145 89.7807 63.3274 86.3452 68.8242C83.8258 72.7178 80.6194 76.1532 76.4968 78.9016L86.8033 88.5209C92.5291 94.0177 92.9872 103.179 87.7195 108.905C82.4517 114.86 73.2904 115.318 67.3355 109.821Z" fill="url(#paint0_linear_1_7)"/>
<path fill-rule="evenodd" clip-rule="evenodd" d="M192.157 34.6985C198.569 36.5308 203.379 41.5695 205.211 47.7534C207.502 53.7082 207.502 72.2598 205.211 78.2146C203.379 84.6275 198.34 89.4372 192.157 91.2695C186.202 93.5598 149.098 93.5598 143.144 91.2695C136.731 89.4372 131.921 84.3985 130.089 78.2146C127.799 72.2598 127.799 53.7082 130.089 47.7534C131.921 41.3405 136.96 36.5308 143.144 34.6985C144.976 34.0114 149.556 33.5534 155.053 33.3244L152.763 27.1405C151.847 24.8501 152.992 22.3308 155.282 21.4147C157.573 20.4985 160.092 21.6436 161.008 23.934L164.215 32.8663C166.276 32.8663 168.566 32.8663 170.627 32.8663L173.834 23.934C174.75 21.6436 177.269 20.4985 179.56 21.4147C181.85 22.3308 182.995 24.8501 182.079 27.1405L179.789 33.3244C185.744 33.5534 190.324 34.0114 192.157 34.6985Z" fill="#FFB700"/>
<path fill-rule="evenodd" clip-rule="evenodd" d="M155.971 49.8144C155.971 46.1499 160.781 44.5467 163.987 46.608L182.539 57.6016C185.745 59.4338 185.975 64.9305 182.768 66.9918L163.987 79.8177C160.781 81.879 155.742 80.0467 155.742 76.3822L155.971 49.8144Z" fill="url(#paint1_linear_1_7)"/>
<defs>
<linearGradient id="paint0_linear_1_7" x1="192.9" y1="144.348" x2="221.074" y2="-20.475" gradientUnits="userSpaceOnUse">
<stop stop-color="#6F00AC"/>
<stop offset="0.2946" stop-color="#7600B1"/>
<stop offset="0.7095" stop-color="#8800BF"/>
<stop offset="1" stop-color="#9900CC"/>
</linearGradient>
<linearGradient id="paint1_linear_1_7" x1="156.622" y1="78.4708" x2="173.703" y2="51.5553" gradientUnits="userSpaceOnUse">
<stop stop-color="#6F00AC"/>
<stop offset="0.2946" stop-color="#7600B1"/>
<stop offset="0.7095" stop-color="#8800BF"/>
<stop offset="1" stop-color="#9900CC"/>
</linearGradient>
</defs>
</svg>
